<?xml version="1.0" encoding="UTF-8"?>
<svg width="115px" height="92px" viewBox="0 0 115 92" version="1.1" xmlns="http://www.w3.org/2000/svg" xmlns:xlink="http://www.w3.org/1999/xlink">
    <!-- Generator: Sketch 50 (54983) - http://www.bohemiancoding.com/sketch -->
    <title>noun_72657_cc</title>
    <desc>Created with Sketch.</desc>
    <defs>
        <filter x="-19.8%" y="-26.5%" width="139.6%" height="152.9%" filterUnits="objectBoundingBox" id="filter-1">
            <feOffset dx="0" dy="0" in="SourceAlpha" result="shadowOffsetOuter1"></feOffset>
            <feGaussianBlur stdDeviation="6" in="shadowOffsetOuter1" result="shadowBlurOuter1"></feGaussianBlur>
            <feColorMatrix values="0 0 0 0 1   0 0 0 0 0.882087975   0 0 0 0 0.688249684  0 0 0 0.672667572 0" type="matrix" in="shadowBlurOuter1" result="shadowMatrixOuter1"></feColorMatrix>
            <feMerge>
                <feMergeNode in="shadowMatrixOuter1"></feMergeNode>
                <feMergeNode in="SourceGraphic"></feMergeNode>
            </feMerge>
        </filter>
    </defs>
    <g id="公司首页" stroke="none" stroke-width="1" fill="none" fill-rule="evenodd" opacity="0.842745536">
        <g id="1440" transform="translate(-790.000000, -872.000000)">
            <g id="noun_72657_cc" filter="url(#filter-1)" transform="translate(802.000000, 884.000000)">
                <circle id="Oval" fill="#000000" fill-rule="nonzero" cx="81.691" cy="3.819" r="1"></circle>
                <circle id="Oval" fill="#000000" fill-rule="nonzero" cx="84.229" cy="3.819" r="1"></circle>
                <circle id="Oval" fill="#000000" fill-rule="nonzero" cx="86.769" cy="3.819" r="1"></circle>
                <path d="M86.536,9.804 C86.515,9.818 86.508,9.837 86.513,9.861 C86.516,9.884 86.532,9.901 86.554,9.909 L87.554,10.251 C87.575,10.257 87.592,10.254 87.611,10.242 C87.627,10.23 87.633,10.214 87.633,10.194 L87.631,9.138 C87.631,9.116 87.62,9.098 87.599,9.085 C87.575,9.075 87.554,9.077 87.536,9.091 L87.301,9.258 L87.283,9.273 C87.155,9.146 87.009,9.046 86.842,8.973 C86.673,8.9 86.493,8.863 86.301,8.863 C86.11,8.863 85.928,8.9 85.759,8.973 C85.589,9.046 85.442,9.146 85.316,9.272 C85.19,9.398 85.09,9.546 85.017,9.715 C84.943,9.885 84.907,10.066 84.907,10.257 C84.907,10.449 84.943,10.63 85.017,10.8 C85.09,10.969 85.19,11.117 85.316,11.243 C85.442,11.369 85.589,11.469 85.759,11.542 C85.928,11.615 86.11,11.652 86.301,11.652 C86.417,11.652 86.53,11.638 86.64,11.61 C86.751,11.582 86.857,11.542 86.956,11.489 C87.055,11.436 87.147,11.372 87.232,11.296 C87.317,11.22 87.392,11.133 87.458,11.036 C87.47,11.018 87.473,11.001 87.467,10.985 C87.463,10.963 87.455,10.948 87.44,10.941 L87.09,10.696 C87.074,10.685 87.056,10.681 87.035,10.685 C87.014,10.688 86.997,10.7 86.985,10.718 C86.91,10.833 86.811,10.923 86.691,10.986 C86.57,11.049 86.439,11.081 86.3,11.081 C86.188,11.081 86.08,11.059 85.982,11.016 C85.88,10.972 85.794,10.913 85.719,10.839 C85.644,10.764 85.585,10.677 85.541,10.577 C85.498,10.476 85.477,10.37 85.477,10.257 C85.477,10.144 85.498,10.038 85.541,9.938 C85.585,9.837 85.644,9.751 85.719,9.676 C85.793,9.602 85.88,9.543 85.982,9.499 C86.081,9.456 86.188,9.434 86.3,9.434 C86.398,9.434 86.488,9.449 86.575,9.48 C86.662,9.511 86.739,9.554 86.809,9.61 L86.77,9.64 L86.536,9.804 Z" id="Shape"></path>
                <g id="Group">
                    <polygon id="Shape" points="12.27 11.652 12.27 10.258 12.759 10.258 11.244 8.861 9.73 10.258 10.218 10.258 10.218 11.652 10.977 11.652 10.977 10.859 11.494 10.859 11.494 11.652"></polygon>
                    <polygon id="Shape" points="1.153 33.571 1.783 33.571 7.621 28.933 11.245 31.502 16.441 28.933 20.735 30.344 26.898 23.855 31.13 30.062 35.458 28.963 38.279 32.107 46.319 31.049 52.667 26.112 58.816 29.779 64.778 28.963 69.278 25.83 73.824 23.855 77.633 26.986 82.11 22.727 86.27 25.125 89.496 19.901 89.496 14.06 1.153 14.06"></polygon>
                    <polygon id="Shape" points="2.586 10.326 4.017 11.574 4.017 11.019 5.154 11.019 5.154 9.633 4.017 9.633 4.017 9.077"></polygon>
                    <path d="M1.153,66.389 C1.153,66.77 1.463,67.08 1.843,67.08 L88.805,67.08 C89.185,67.08 89.495,66.769 89.495,66.389 L89.495,34.571 L1.153,34.571 L1.153,66.389 Z M5.135,44.726 L7.675,44.726 L7.675,45.676 L5.135,45.676 L5.135,44.726 Z M5.135,46.418 L31.13,46.418 L31.13,47.368 L5.135,47.368 L5.135,46.418 Z M5.135,48.11 L31.13,48.11 L31.13,49.061 L5.135,49.061 L5.135,48.11 Z M5.135,51.6 L7.675,51.6 L7.675,52.551 L5.135,52.551 L5.135,51.6 Z M5.135,53.293 L31.13,53.293 L31.13,54.243 L5.135,54.243 L5.135,53.293 Z M5.135,54.985 L31.13,54.985 L31.13,55.935 L5.135,55.935 L5.135,54.985 Z" id="Shape"></path>
                    <polygon id="Shape" points="8.958 10.325 7.528 9.077 7.528 9.632 6.391 9.632 6.391 11.018 7.528 11.018 7.527 11.574"></polygon>
                    <path d="M88.806,1.064 L1.844,1.064 C1.464,1.064 1.154,1.374 1.154,1.755 L1.154,6.574 L89.497,6.574 L89.497,1.755 C89.496,1.374 89.186,1.064 88.806,1.064 Z" id="Shape"></path>
                    <path d="M86.536,9.804 C86.515,9.818 86.508,9.837 86.513,9.861 C86.516,9.884 86.532,9.901 86.554,9.909 L87.554,10.251 C87.575,10.257 87.592,10.254 87.611,10.242 C87.627,10.23 87.633,10.214 87.633,10.194 L87.631,9.138 C87.631,9.116 87.62,9.098 87.599,9.085 C87.575,9.075 87.554,9.077 87.536,9.091 L87.301,9.258 L87.283,9.273 C87.155,9.146 87.009,9.046 86.842,8.973 C86.673,8.9 86.493,8.863 86.301,8.863 C86.11,8.863 85.928,8.9 85.759,8.973 C85.589,9.046 85.442,9.146 85.316,9.272 C85.19,9.398 85.09,9.546 85.017,9.715 C84.943,9.885 84.907,10.066 84.907,10.257 C84.907,10.449 84.943,10.63 85.017,10.8 C85.09,10.969 85.19,11.117 85.316,11.243 C85.442,11.369 85.589,11.469 85.759,11.542 C85.928,11.615 86.11,11.652 86.301,11.652 C86.417,11.652 86.53,11.638 86.64,11.61 C86.751,11.582 86.857,11.542 86.956,11.489 C87.055,11.436 87.147,11.372 87.232,11.296 C87.317,11.22 87.392,11.133 87.458,11.036 C87.47,11.018 87.473,11.001 87.467,10.985 C87.463,10.963 87.455,10.948 87.44,10.941 L87.09,10.696 C87.074,10.685 87.056,10.681 87.035,10.685 C87.014,10.688 86.997,10.7 86.985,10.718 C86.91,10.833 86.811,10.923 86.691,10.986 C86.57,11.049 86.439,11.081 86.3,11.081 C86.188,11.081 86.08,11.059 85.982,11.016 C85.88,10.972 85.794,10.913 85.719,10.839 C85.644,10.764 85.585,10.677 85.541,10.577 C85.498,10.476 85.477,10.37 85.477,10.257 C85.477,10.144 85.498,10.038 85.541,9.938 C85.585,9.837 85.644,9.751 85.719,9.676 C85.793,9.602 85.88,9.543 85.982,9.499 C86.081,9.456 86.188,9.434 86.3,9.434 C86.398,9.434 86.488,9.449 86.575,9.48 C86.662,9.511 86.739,9.554 86.809,9.61 L86.77,9.64 L86.536,9.804 Z" id="Shape"></path>
                    <path d="M82.878,11.83 C83.063,11.83 83.213,11.679 83.213,11.494 L83.213,9.197 C83.213,9.012 83.063,8.862 82.878,8.862 L14.557,8.862 C14.372,8.862 14.222,9.013 14.222,9.197 L14.222,11.494 C14.222,11.679 14.372,11.83 14.557,11.83 L82.878,11.83 Z" id="Shape"></path>
                    <rect id="Rectangle-path" fill="#CF9F84" fill-rule="nonzero" x="5.135" y="44.726" width="2.54" height="1"></rect>
                    <rect id="Rectangle-path" fill="#D1A085" fill-rule="nonzero" x="5.135" y="46.418" width="25.995" height="1"></rect>
                    <rect id="Rectangle-path" fill="#DEA88E" fill-rule="nonzero" x="5.135" y="48.11" width="25.995" height="1"></rect>
                    <rect id="Rectangle-path" fill="#CF9F84" fill-rule="nonzero" x="5.135" y="51.6" width="2.54" height="1"></rect>
                    <rect id="Rectangle-path" fill="#DEA88E" fill-rule="nonzero" x="5.135" y="53.293" width="25.995" height="1"></rect>
                    <rect id="Rectangle-path" fill="#DEA88E" fill-rule="nonzero" x="5.135" y="54.985" width="25.995" height="1"></rect>
                    <path d="M88.806,0.235 L1.844,0.235 C1.007,0.235 0.325,0.917 0.325,1.755 L0.325,66.389 C0.325,67.228 1.007,67.909 1.844,67.909 L88.806,67.909 C89.644,67.909 90.325,67.228 90.325,66.389 L90.325,1.755 C90.324,0.917 89.644,0.235 88.806,0.235 Z M89.496,66.389 C89.496,66.77 89.185,67.08 88.806,67.08 L1.844,67.08 C1.464,67.08 1.154,66.769 1.154,66.389 L1.154,34.571 L89.497,34.571 L89.497,66.389 L89.496,66.389 Z M89.496,19.901 L86.269,25.125 L82.11,22.728 L77.632,26.987 L73.823,23.857 L69.277,25.832 L64.777,28.965 L58.815,29.781 L52.666,26.114 L46.318,31.051 L38.278,32.109 L35.457,28.965 L31.128,30.063 L26.897,23.857 L20.733,30.345 L16.439,28.934 L11.243,31.503 L7.619,28.934 L1.781,33.572 L1.153,33.572 L1.153,14.06 L89.496,14.06 L89.496,19.901 Z M5.154,9.633 L5.154,11.018 L4.017,11.018 L4.017,11.574 L2.586,10.325 L4.017,9.076 L4.017,9.633 L5.154,9.633 Z M6.391,11.018 L6.391,9.633 L7.528,9.633 L7.528,9.077 L8.958,10.326 L7.527,11.575 L7.527,11.018 L6.391,11.018 Z M10.977,10.859 L10.977,11.652 L10.219,11.652 L10.219,10.258 L9.73,10.258 L11.244,8.862 L12.759,10.258 L12.27,10.258 L12.27,11.652 L11.494,11.652 L11.494,10.859 L10.977,10.859 Z M14.222,11.494 L14.222,9.197 C14.222,9.012 14.372,8.862 14.557,8.862 L82.878,8.862 C83.063,8.862 83.213,9.013 83.213,9.197 L83.213,11.494 C83.213,11.679 83.063,11.83 82.878,11.83 L14.557,11.83 C14.372,11.83 14.222,11.679 14.222,11.494 Z M86.576,9.479 C86.489,9.448 86.398,9.433 86.301,9.433 C86.189,9.433 86.081,9.455 85.983,9.498 C85.881,9.542 85.795,9.601 85.72,9.675 C85.645,9.75 85.586,9.837 85.542,9.937 C85.499,10.038 85.478,10.144 85.478,10.256 C85.478,10.369 85.499,10.475 85.542,10.576 C85.586,10.677 85.645,10.764 85.72,10.838 C85.794,10.912 85.881,10.971 85.983,11.015 C86.082,11.058 86.189,11.08 86.301,11.08 C86.44,11.08 86.571,11.048 86.692,10.985 C86.812,10.922 86.911,10.832 86.986,10.717 C86.998,10.699 87.014,10.688 87.036,10.684 C87.057,10.68 87.075,10.684 87.091,10.695 L87.441,10.94 C87.457,10.948 87.464,10.962 87.468,10.984 C87.474,11 87.471,11.017 87.459,11.035 C87.394,11.132 87.318,11.219 87.233,11.295 C87.148,11.372 87.055,11.436 86.957,11.488 C86.857,11.541 86.752,11.581 86.641,11.609 C86.531,11.637 86.418,11.651 86.302,11.651 C86.111,11.651 85.929,11.614 85.76,11.541 C85.59,11.468 85.443,11.368 85.317,11.242 C85.191,11.116 85.091,10.968 85.018,10.799 C84.944,10.629 84.908,10.448 84.908,10.256 C84.908,10.064 84.944,9.883 85.018,9.714 C85.091,9.545 85.191,9.397 85.317,9.271 C85.443,9.145 85.59,9.045 85.76,8.972 C85.929,8.899 86.111,8.862 86.302,8.862 C86.494,8.862 86.674,8.899 86.843,8.972 C87.01,9.045 87.156,9.145 87.284,9.272 L87.302,9.257 L87.537,9.09 C87.555,9.076 87.575,9.074 87.6,9.084 C87.621,9.098 87.632,9.115 87.632,9.137 L87.634,10.193 C87.634,10.213 87.627,10.229 87.612,10.241 C87.593,10.253 87.576,10.256 87.555,10.25 L86.555,9.908 C86.533,9.9 86.517,9.884 86.514,9.86 C86.509,9.836 86.517,9.818 86.537,9.803 L86.772,9.637 L86.811,9.607 C86.74,9.553 86.663,9.509 86.576,9.479 Z M89.496,6.574 L1.153,6.574 L1.153,1.755 C1.153,1.374 1.463,1.064 1.843,1.064 L88.805,1.064 C89.185,1.064 89.495,1.374 89.495,1.755 L89.495,6.574 L89.496,6.574 Z" id="Shape" fill="#DEA88E" fill-rule="nonzero"></path>
                </g>
                <path d="M72.465,50.237 L72.465,40.901 C67.354,41.014 63.242,45.185 63.242,50.325 C63.242,52.853 64.243,55.145 65.863,56.84 L72.465,50.237 Z" id="Shape" fill="#DEA88E" fill-rule="nonzero"></path>
                <path d="M72.677,59.759 C77.888,59.759 82.111,55.536 82.111,50.325 C82.111,45.185 78.001,41.014 72.888,40.901 L72.888,50.325 C72.888,50.384 72.865,50.436 72.826,50.474 L66.162,57.138 C67.856,58.759 70.147,59.759 72.677,59.759 Z" id="Shape" fill="#DEA88E" fill-rule="nonzero"></path>
            </g>
        </g>
    </g>
</svg>